<mxfile host="app.diagrams.net" modified="2021-09-27T06:54:37.308Z" agent="5.0 (Macintosh; Intel Mac OS X 10_15_7) AppleWebKit/605.1.15 (KHTML, like Gecko) Version/14.1.2 Safari/605.1.15" etag="C_PAkFfGjtE5y8dKHa6z" version="15.3.2" type="github">
  <diagram id="C5RBs43oDa-KdzZeNtuy" name="Page-1">
    <mxGraphModel dx="432" dy="645" grid="1" gridSize="10" guides="1" tooltips="1" connect="1" arrows="1" fold="1" page="1" pageScale="1" pageWidth="827" pageHeight="1169" math="0" shadow="0">
      <root>
        <mxCell id="WIyWlLk6GJQsqaUBKTNV-0" />
        <mxCell id="WIyWlLk6GJQsqaUBKTNV-1" parent="WIyWlLk6GJQsqaUBKTNV-0" />
        <mxCell id="RI1b6BAHuvbzdq68APIn-6" value="" style="edgeStyle=orthogonalEdgeStyle;rounded=0;orthogonalLoop=1;jettySize=auto;html=1;" edge="1" parent="WIyWlLk6GJQsqaUBKTNV-1" source="RI1b6BAHuvbzdq68APIn-2" target="RI1b6BAHuvbzdq68APIn-5">
          <mxGeometry relative="1" as="geometry" />
        </mxCell>
        <mxCell id="RI1b6BAHuvbzdq68APIn-2" value="START" style="strokeWidth=2;html=1;shape=mxgraph.flowchart.start_1;whiteSpace=wrap;fillColor=#d5e8d4;strokeColor=#82b366;" vertex="1" parent="WIyWlLk6GJQsqaUBKTNV-1">
          <mxGeometry x="364" y="80" width="100" height="60" as="geometry" />
        </mxCell>
        <mxCell id="RI1b6BAHuvbzdq68APIn-8" value="" style="edgeStyle=orthogonalEdgeStyle;rounded=0;orthogonalLoop=1;jettySize=auto;html=1;" edge="1" parent="WIyWlLk6GJQsqaUBKTNV-1" source="RI1b6BAHuvbzdq68APIn-5" target="RI1b6BAHuvbzdq68APIn-7">
          <mxGeometry relative="1" as="geometry" />
        </mxCell>
        <mxCell id="RI1b6BAHuvbzdq68APIn-5" value="ENTER USER &lt;br&gt;AND PASSWORD" style="shape=parallelogram;perimeter=parallelogramPerimeter;whiteSpace=wrap;html=1;fixedSize=1;strokeWidth=2;fillColor=#e1d5e7;strokeColor=#9673a6;" vertex="1" parent="WIyWlLk6GJQsqaUBKTNV-1">
          <mxGeometry x="346" y="190" width="136" height="60" as="geometry" />
        </mxCell>
        <mxCell id="RI1b6BAHuvbzdq68APIn-10" value="" style="edgeStyle=orthogonalEdgeStyle;rounded=0;orthogonalLoop=1;jettySize=auto;html=1;entryX=1;entryY=0.5;entryDx=0;entryDy=0;exitX=1;exitY=0.5;exitDx=0;exitDy=0;" edge="1" parent="WIyWlLk6GJQsqaUBKTNV-1" source="RI1b6BAHuvbzdq68APIn-7" target="RI1b6BAHuvbzdq68APIn-5">
          <mxGeometry relative="1" as="geometry">
            <mxPoint x="580" y="355" as="targetPoint" />
            <Array as="points">
              <mxPoint x="530" y="345" />
              <mxPoint x="530" y="220" />
            </Array>
          </mxGeometry>
        </mxCell>
        <mxCell id="RI1b6BAHuvbzdq68APIn-18" value="" style="edgeStyle=orthogonalEdgeStyle;rounded=0;orthogonalLoop=1;jettySize=auto;html=1;" edge="1" parent="WIyWlLk6GJQsqaUBKTNV-1" source="RI1b6BAHuvbzdq68APIn-7" target="RI1b6BAHuvbzdq68APIn-17">
          <mxGeometry relative="1" as="geometry" />
        </mxCell>
        <mxCell id="RI1b6BAHuvbzdq68APIn-7" value="USER AND &lt;br&gt;PASS EXIST?" style="rhombus;whiteSpace=wrap;html=1;strokeWidth=2;fillColor=#f8cecc;strokeColor=#b85450;" vertex="1" parent="WIyWlLk6GJQsqaUBKTNV-1">
          <mxGeometry x="341" y="300" width="146" height="90" as="geometry" />
        </mxCell>
        <mxCell id="RI1b6BAHuvbzdq68APIn-11" value="FALSE" style="text;html=1;align=center;verticalAlign=middle;resizable=0;points=[];autosize=1;strokeColor=none;fillColor=none;" vertex="1" parent="WIyWlLk6GJQsqaUBKTNV-1">
          <mxGeometry x="475" y="320" width="50" height="20" as="geometry" />
        </mxCell>
        <mxCell id="RI1b6BAHuvbzdq68APIn-14" value="TRUE" style="text;html=1;align=center;verticalAlign=middle;resizable=0;points=[];autosize=1;strokeColor=none;fillColor=none;" vertex="1" parent="WIyWlLk6GJQsqaUBKTNV-1">
          <mxGeometry x="415" y="400" width="50" height="20" as="geometry" />
        </mxCell>
        <mxCell id="RI1b6BAHuvbzdq68APIn-24" value="" style="edgeStyle=orthogonalEdgeStyle;rounded=0;orthogonalLoop=1;jettySize=auto;html=1;" edge="1" parent="WIyWlLk6GJQsqaUBKTNV-1" source="RI1b6BAHuvbzdq68APIn-17" target="RI1b6BAHuvbzdq68APIn-23">
          <mxGeometry relative="1" as="geometry" />
        </mxCell>
        <mxCell id="RI1b6BAHuvbzdq68APIn-30" value="" style="edgeStyle=orthogonalEdgeStyle;rounded=0;orthogonalLoop=1;jettySize=auto;html=1;entryX=1;entryY=0.5;entryDx=0;entryDy=0;exitX=1;exitY=0.5;exitDx=0;exitDy=0;" edge="1" parent="WIyWlLk6GJQsqaUBKTNV-1" source="RI1b6BAHuvbzdq68APIn-17" target="RI1b6BAHuvbzdq68APIn-23">
          <mxGeometry relative="1" as="geometry">
            <mxPoint x="580" y="485" as="targetPoint" />
            <Array as="points">
              <mxPoint x="530" y="485" />
              <mxPoint x="530" y="630" />
            </Array>
          </mxGeometry>
        </mxCell>
        <mxCell id="RI1b6BAHuvbzdq68APIn-17" value="ALLOW I/O ACCESS?" style="rhombus;whiteSpace=wrap;html=1;strokeWidth=2;fillColor=#f8cecc;strokeColor=#b85450;" vertex="1" parent="WIyWlLk6GJQsqaUBKTNV-1">
          <mxGeometry x="341" y="440" width="146" height="90" as="geometry" />
        </mxCell>
        <mxCell id="RI1b6BAHuvbzdq68APIn-32" value="" style="edgeStyle=orthogonalEdgeStyle;rounded=0;orthogonalLoop=1;jettySize=auto;html=1;" edge="1" parent="WIyWlLk6GJQsqaUBKTNV-1" source="RI1b6BAHuvbzdq68APIn-23" target="RI1b6BAHuvbzdq68APIn-31">
          <mxGeometry relative="1" as="geometry" />
        </mxCell>
        <mxCell id="RI1b6BAHuvbzdq68APIn-37" value="" style="edgeStyle=orthogonalEdgeStyle;rounded=0;orthogonalLoop=1;jettySize=auto;html=1;entryX=0;entryY=0.5;entryDx=0;entryDy=0;" edge="1" parent="WIyWlLk6GJQsqaUBKTNV-1" source="RI1b6BAHuvbzdq68APIn-23" target="RI1b6BAHuvbzdq68APIn-33">
          <mxGeometry relative="1" as="geometry">
            <mxPoint x="350" y="860" as="targetPoint" />
            <Array as="points">
              <mxPoint x="300" y="630" />
              <mxPoint x="300" y="870" />
            </Array>
          </mxGeometry>
        </mxCell>
        <mxCell id="RI1b6BAHuvbzdq68APIn-23" value="ENTER ROOM?" style="rhombus;whiteSpace=wrap;html=1;strokeWidth=2;fillColor=#f8cecc;strokeColor=#b85450;" vertex="1" parent="WIyWlLk6GJQsqaUBKTNV-1">
          <mxGeometry x="341" y="585" width="146" height="90" as="geometry" />
        </mxCell>
        <mxCell id="RI1b6BAHuvbzdq68APIn-25" value="TRUE" style="text;html=1;align=center;verticalAlign=middle;resizable=0;points=[];autosize=1;strokeColor=none;fillColor=none;" vertex="1" parent="WIyWlLk6GJQsqaUBKTNV-1">
          <mxGeometry x="415" y="540" width="50" height="20" as="geometry" />
        </mxCell>
        <mxCell id="RI1b6BAHuvbzdq68APIn-34" value="" style="edgeStyle=orthogonalEdgeStyle;rounded=0;orthogonalLoop=1;jettySize=auto;html=1;" edge="1" parent="WIyWlLk6GJQsqaUBKTNV-1" source="RI1b6BAHuvbzdq68APIn-31" target="RI1b6BAHuvbzdq68APIn-33">
          <mxGeometry relative="1" as="geometry" />
        </mxCell>
        <mxCell id="RI1b6BAHuvbzdq68APIn-31" value="START CONFERENCE" style="whiteSpace=wrap;html=1;strokeWidth=2;fillColor=#dae8fc;strokeColor=#6c8ebf;" vertex="1" parent="WIyWlLk6GJQsqaUBKTNV-1">
          <mxGeometry x="354" y="730" width="120" height="60" as="geometry" />
        </mxCell>
        <mxCell id="RI1b6BAHuvbzdq68APIn-33" value="END" style="ellipse;whiteSpace=wrap;html=1;strokeWidth=2;fillColor=#d5e8d4;strokeColor=#82b366;" vertex="1" parent="WIyWlLk6GJQsqaUBKTNV-1">
          <mxGeometry x="354" y="840" width="120" height="60" as="geometry" />
        </mxCell>
        <mxCell id="RI1b6BAHuvbzdq68APIn-35" value="YES" style="text;html=1;align=center;verticalAlign=middle;resizable=0;points=[];autosize=1;strokeColor=none;fillColor=none;" vertex="1" parent="WIyWlLk6GJQsqaUBKTNV-1">
          <mxGeometry x="415" y="680" width="40" height="20" as="geometry" />
        </mxCell>
        <mxCell id="RI1b6BAHuvbzdq68APIn-38" value="FALSE" style="text;html=1;align=center;verticalAlign=middle;resizable=0;points=[];autosize=1;strokeColor=none;fillColor=none;" vertex="1" parent="WIyWlLk6GJQsqaUBKTNV-1">
          <mxGeometry x="314" y="650" width="50" height="20" as="geometry" />
        </mxCell>
        <mxCell id="RI1b6BAHuvbzdq68APIn-39" value="FALSE" style="text;html=1;align=center;verticalAlign=middle;resizable=0;points=[];autosize=1;strokeColor=none;fillColor=none;" vertex="1" parent="WIyWlLk6GJQsqaUBKTNV-1">
          <mxGeometry x="475" y="460" width="50" height="20" as="geometry" />
        </mxCell>
      </root>
    </mxGraphModel>
  </diagram>
</mxfile>
